<svg xmlns="http://www.w3.org/2000/svg" fill="none" viewBox="0 0 50 50" id="Jest--Streamline-Svg-Logos" height="35" width="35"><desc>Jest Streamline Icon: https://streamlinehq.com</desc><path fill="#99425b" d="M44.39026041666667 24.6259375c0 -2.5167708333333336 -2.040208333333333 -4.556979166666666 -4.557083333333333 -4.556979166666666 -0.16182291666666668 0 -0.3215625 0.008697916666666666 -0.47890625000000003 0.02515625L45.61328125 1.6337708333333334H19.014427083333334L25.264739583333334 20.078125c-0.09166666666666667 -0.005572916666666667 -0.18385416666666668 -0.009166666666666668 -0.276875 -0.009166666666666668 -2.5167708333333336 0 -4.557083333333333 2.040208333333333 -4.557083333333333 4.556979166666666 0 2.0344270833333336 1.333229166666667 3.756666666666667 3.173333333333334 4.342604166666667 -0.9718750000000002 1.6834895833333334 -2.194791666666667 3.1996875 -3.583229166666667 4.5096875 -1.88796875 1.7810937500000001 -4.048697916666667 3.1315625000000002 -6.385729166666668 3.9638541666666667 -2.7822916666666666 -1.4293750000000003 -4.096302083333334 -4.6081770833333335 -2.910625 -7.3953645833333335 0.13375 -0.3147916666666667 0.27057291666666666 -0.6337500000000001 0.40109375 -0.95140625 2.0158333333333336 -0.4704166666666667 3.5178125000000002 -2.277447916666667 3.5178125000000002 -4.436614583333333 0 -2.5167708333333336 -2.040208333333333 -4.556979166666666 -4.557083333333333 -4.556979166666666 -2.5167708333333336 0 -4.557083333333333 2.040208333333333 -4.557083333333333 4.556979166666666 0 1.5433333333333334 0.7679166666666667 2.906510416666667 1.9416666666666669 3.7308854166666667 -1.1278645833333336 2.568072916666667 -2.785869791666667 5.2556770833333335 -3.3024010416666667 8.370677083333334 -0.6190364583333334 3.7331770833333335 -0.0020052083333333337 7.6957812500000005 3.226723958333334 9.933645833333335 7.519479166666668 5.211614583333334 15.681822916666668 -3.2308333333333334 24.28791666666667 -5.353072916666667 3.119010416666667 -0.7691666666666667 6.542604166666667 -0.6452083333333333 9.290572916666667 -2.23671875 2.063541666666667 -1.195260416666667 3.4239583333333337 -3.1758854166666666 3.8100520833333333 -5.399635416666667 0.38140625 -2.196770833333334 -0.17463541666666668 -4.3840104166666665 -1.4534375000000002 -6.157500000000001 0.6614062500000001 -0.7910416666666666 1.0598958333333335 -1.8092708333333336 1.0598958333333335 -2.9210416666666665Z" stroke-width="0.5208"></path><path fill="#ffffff" d="M43.686718750000004 33.51401041666667c-0.33520833333333333 1.9305208333333335 -1.5275520833333334 3.6169270833333336 -3.271354166666667 4.626927083333333 -1.6255208333333335 0.9414583333333334 -3.5734375000000003 1.2225000000000001 -5.635781250000001 1.5198958333333334 -1.1048437500000001 0.15927083333333336 -2.247291666666667 0.3241145833333333 -3.363385416666667 0.5993229166666667 -2.95109375 0.72765625 -5.8094270833333335 2.1475 -8.57359375 3.52046875 -5.531822916666667 2.7477083333333336 -10.309166666666668 5.120364583333333 -14.813802083333334 1.9984375000000003 -3.2996614583333335 -2.2869270833333335 -3.147291666666667 -6.518125 -2.7628645833333336 -8.836770833333334 0.35625000000000007 -2.1481770833333336 1.3194270833333335 -4.126458333333334 2.2508854166666667 -6.039791666666667 0.1609375 -0.33078125 0.31864583333333335 -0.6554166666666666 0.4721354166666667 -0.9772916666666668 0.46161458333333333 0.18442708333333335 0.9527083333333334 0.3102604166666667 1.46453125 0.36750000000000005 -0.9481250000000001 3.1291145833333336 0.5429166666666667 6.531510416666667 3.672604166666667 8.139270833333335l0.42828125000000006 0.22005208333333334 0.45364583333333336 -0.16151041666666668c2.4741666666666666 -0.8811458333333334 4.753958333333333 -2.2950520833333337 6.7761458333333335 -4.202916666666667 1.3070833333333334 -1.2331770833333335 2.4309375 -2.597447916666667 3.3545833333333337 -4.055208333333334 0.2769270833333333 0.041718750000000006 0.56015625 0.06364583333333335 0.8485416666666667 0.06364583333333335 2.8723958333333335 0 5.2510416666666675 -2.1473958333333334 5.619062500000001 -4.920781250000001 1.17578125 -0.04307291666666667 2.4246354166666673 -0.043437500000000004 3.6071875 -0.00046875000000000004 0.36781250000000004 2.7736458333333336 2.7466145833333337 4.921250000000001 5.619062500000001 4.921250000000001 1.2010416666666668 0 2.315104166666667 -0.37640625000000005 3.2328645833333334 -1.0158333333333334 0.6371875 1.3043229166666668 0.875 2.771875 0.6212500000000001 4.233802083333334ZM10.08578125 21.214583333333334c1.8991666666666667 0 3.4441145833333335 1.5450520833333334 3.4441145833333335 3.4441145833333335 0 0.6821354166666668 -0.20010416666666667 1.3182291666666668 -0.5438020833333334 1.85390625 -0.57265625 0.8928125 -1.54546875 1.50484375 -2.663697916666667 1.5811979166666668 -0.07822916666666667 0.0053125 -0.15703125 0.009010416666666667 -0.23661458333333335 0.009010416666666667 -0.42317708333333337 0 -0.82859375 -0.07723958333333333 -1.2034375000000002 -0.21734375000000003 -0.75828125 -0.2838541666666667 -1.3901041666666667 -0.8278645833333333 -1.7875520833333336 -1.5225520833333333 -0.28770833333333334 -0.5029687500000001 -0.45312500000000006 -1.0844791666666667 -0.45312500000000006 -1.7042187500000001 0 -1.8990625 1.5450520833333334 -3.4441145833333335 3.4441145833333335 -3.4441145833333335Zm11.457395833333335 3.41140625c0 -1.72546875 1.2754687500000002 -3.1581770833333334 2.932916666666667 -3.4059375000000003 0.16682291666666665 -0.025052083333333332 0.3376041666666667 -0.03817708333333334 0.5111979166666667 -0.03817708333333334 1.1040625000000002 0 2.0870833333333336 0.5231250000000001 2.7175520833333335 1.3335937500000001 0.15671875000000002 0.20130208333333335 0.29260416666666667 0.41979166666666673 0.40203125000000006 0.6530729166666667 0.20776041666666667 0.44296875 0.32453125 0.9366666666666668 0.32453125 1.4574479166666667 0 0.2753645833333333 -0.033385416666666674 0.5430208333333334 -0.09473958333333335 0.7997916666666668 -0.33567708333333335 1.4051041666666668 -1.53375 2.4790104166666667 -3.0018750000000005 2.626822916666667 -0.11421875000000001 0.011458333333333334 -0.23020833333333335 0.0175 -0.34750000000000003 0.0175 -0.6876041666666667 0 -1.3282291666666666 -0.20333333333333337 -1.8665625000000001 -0.5519270833333334 -0.9482812500000001 -0.6142708333333334 -1.5775520833333336 -1.6808333333333334 -1.5775520833333336 -2.8921875000000004Zm14.374427083333334 -4.095416666666667c-0.7378125000000001 0.7059375 -1.2865104166666668 1.6079166666666669 -1.5597395833333334 2.6221875000000003 -1.2753645833333336 -0.047864583333333335 -2.6277083333333335 -0.047864583333333335 -3.895729166666667 0 -0.29125 -1.081041666666667 -0.8953645833333335 -2.0347395833333333 -1.7079687500000003 -2.75921875l3.56375 -7.206145833333334 3.5996875000000004 7.343177083333334ZM20.566250000000004 2.74678125h23.493906250000002L38.511197916666674 19.11265625c-0.24052083333333335 0.05776041666666667 -0.47515625000000006 0.13041666666666668 -0.7028645833333333 0.21781250000000002l-5.481614583333333 -11.182291666666666 -5.4971354166666675 11.11546875c-0.23760416666666667 -0.08177083333333333 -0.4824479166666667 -0.14765625 -0.7330729166666667 -0.19765625L20.566250000000004 2.74678125ZM43.27671875000001 24.625989583333336c0 0.34536458333333336 -0.051666666666666666 0.6786979166666667 -0.1465625 0.9934375000000001 -0.2261979166666667 0.7488020833333334 -0.7007291666666666 1.3904166666666669 -1.3274479166666668 1.8291666666666668 -0.5587500000000001 0.39109375 -1.2378645833333335 0.6215104166666667 -1.9701041666666668 0.6215104166666667 -1.5902083333333334 0 -2.931666666666667 -1.083697916666667 -3.325989583333334 -2.5513020833333337 -0.07661458333333335 -0.28489583333333335 -0.11812500000000001 -0.5840625 -0.11812500000000001 -0.8928125 0 -0.47078125000000004 0.09515625000000001 -0.9196354166666667 0.2669270833333333 -1.3286979166666668 0.08843750000000002 -0.21078125 0.19885416666666667 -0.41000000000000003 0.325625 -0.5971875000000001 0.61984375 -0.9147395833333334 1.6657812500000002 -1.5182291666666667 2.8515625 -1.5182291666666667 0.10875000000000001 0 0.2160416666666667 0.0056770833333333335 0.3221875 0.015572916666666667 1.7485937500000002 0.16296875000000002 3.121927083333334 1.6380729166666668 3.121927083333334 3.428541666666667Zm2.2259375 0c0 -2.7681770833333332 -1.9944270833333335 -5.077864583333334 -4.621406250000001 -5.571354166666667L47.16520833333333 0.5208333333333334h-29.703645833333336l6.293541666666667 18.571562500000002c-2.53578125 0.5642708333333333 -4.437864583333334 2.830260416666667 -4.437864583333334 5.53359375 0 2.02984375 1.0728125000000002 3.812916666666667 2.68046875 4.8148437500000005 -0.77328125 1.1521354166666666 -1.6903645833333334 2.236302083333334 -2.7411458333333334 3.227760416666667 -1.666666666666667 1.5722916666666669 -3.523333333333334 2.7645833333333334 -5.525 3.549166666666667 -2.0161458333333333 -1.2664583333333335 -2.8684895833333335 -3.6547916666666667 -1.9833333333333334 -5.735520833333334l0.06932291666666666 -0.16307291666666668c0.043437500000000004 -0.10182291666666668 0.08682291666666667 -0.2038541666666667 0.13010416666666666 -0.30593750000000003 2.2145312500000003 -0.7723958333333334 3.8081770833333337 -2.88015625 3.8081770833333337 -5.35453125 0 -3.1265625000000004 -2.5435937500000003 -5.670052083333333 -5.670052083333333 -5.670052083333333S4.415729166666667 21.53213541666667 4.415729166666667 24.65869791666667c0 1.5780729166666667 0.6486406250000001 3.007135416666667 1.6926041666666667 4.03609375 -0.18921875000000002 0.4032291666666667 -0.38843750000000005 0.8133854166666667 -0.5928645833333335 1.23328125 -0.9544947916666667 1.9605208333333335 -2.0363072916666667 4.182552083333333 -2.4454375 6.650052083333334 -0.8125833333333334 4.900416666666667 0.4981666666666667 8.817760416666667 3.6907500000000004 11.03046875C8.698125 48.95130208333334 10.665416666666667 49.47916666666667 12.645312500000001 49.47916666666667c3.728020833333334 0 7.499114583333334 -1.8729166666666668 11.187500000000002 -3.705 2.656354166666667 -1.319322916666667 5.4031770833333335 -2.683697916666667 8.116354166666667 -3.3528125 1.0094791666666667 -0.24895833333333334 2.0483333333333333 -0.3988020833333334 3.1481770833333336 -0.5573958333333334 2.1808854166666665 -0.31463541666666667 4.43609375 -0.63984375 6.433645833333334 -1.7967708333333337 2.315572916666667 -1.3412500000000003 3.9006770833333335 -3.591041666666667 4.348854166666667 -6.1723437500000005 0.38473958333333336 -2.216041666666667 -0.07822916666666667 -4.435625000000001 -1.2075520833333333 -6.317916666666667 0.52640625 -0.8602083333333334 0.8303645833333334 -1.8706770833333335 0.8303645833333334 -2.9509375Z" stroke-width="0.5208"></path></svg>
